<?xml version="1.0" encoding="UTF-8" standalone="no"?>
<!-- Created with Inkscape (http://www.inkscape.org/) -->

<svg
   xmlns:dc="http://purl.org/dc/elements/1.1/"
   xmlns:cc="http://creativecommons.org/ns#"
   xmlns:rdf="http://www.w3.org/1999/02/22-rdf-syntax-ns#"
   xmlns:svg="http://www.w3.org/2000/svg"
   xmlns="http://www.w3.org/2000/svg"
   xmlns:xlink="http://www.w3.org/1999/xlink"
   xmlns:sodipodi="http://sodipodi.sourceforge.net/DTD/sodipodi-0.dtd"
   xmlns:inkscape="http://www.inkscape.org/namespaces/inkscape"
   width="86"
   height="86"
   id="svg2"
   sodipodi:version="0.32"
   inkscape:version="0.48.3.1 r9886"
   version="1.0"
   sodipodi:docname="maep.svg"
   inkscape:output_extension="org.inkscape.output.svg.inkscape"
   inkscape:export-filename="/home/caliste/developpement/maep-qt/data/harbour-maep-qt.png"
   inkscape:export-xdpi="90"
   inkscape:export-ydpi="90">
  <defs
     id="defs4">
    <linearGradient
       id="linearGradient20424">
      <stop
         style="stop-color:#f7ff79;stop-opacity:1;"
         offset="0"
         id="stop20426" />
      <stop
         style="stop-color:#c35c00;stop-opacity:1;"
         offset="1"
         id="stop20428" />
    </linearGradient>
    <linearGradient
       id="linearGradient20289">
      <stop
         style="stop-color:#abe0ff;stop-opacity:1;"
         offset="0"
         id="stop20291" />
      <stop
         style="stop-color:#006faf;stop-opacity:1;"
         offset="1"
         id="stop20293" />
    </linearGradient>
    <linearGradient
       id="linearGradient3171">
      <stop
         style="stop-color:#bbbcfd;stop-opacity:1;"
         offset="0"
         id="stop3173" />
      <stop
         style="stop-color:#5357f8;stop-opacity:1;"
         offset="1"
         id="stop3175" />
    </linearGradient>
    <linearGradient
       id="linearGradient3308">
      <stop
         style="stop-color:#ffffff;stop-opacity:1;"
         offset="0"
         id="stop3310" />
      <stop
         id="stop3316"
         offset="0.43339428"
         style="stop-color:#fffdf7;stop-opacity:1;" />
      <stop
         style="stop-color:#e0b304;stop-opacity:1;"
         offset="0.74691355"
         id="stop3364" />
      <stop
         style="stop-color:#ffeb3a;stop-opacity:1;"
         offset="1"
         id="stop3312" />
    </linearGradient>
    <inkscape:perspective
       sodipodi:type="inkscape:persp3d"
       inkscape:vp_x="0 : 526.18109 : 1"
       inkscape:vp_y="0 : 1000 : 0"
       inkscape:vp_z="744.09448 : 526.18109 : 1"
       inkscape:persp3d-origin="372.04724 : 350.78739 : 1"
       id="perspective10" />
    <inkscape:perspective
       id="perspective2444"
       inkscape:persp3d-origin="372.04724 : 350.78739 : 1"
       inkscape:vp_z="744.09448 : 526.18109 : 1"
       inkscape:vp_y="0 : 1000 : 0"
       inkscape:vp_x="0 : 526.18109 : 1"
       sodipodi:type="inkscape:persp3d" />
    <radialGradient
       inkscape:collect="always"
       xlink:href="#linearGradient3308"
       id="radialGradient3314"
       cx="16"
       cy="15.5"
       fx="16"
       fy="15.5"
       r="4.5"
       gradientTransform="matrix(0.997802,0,0,3.2285789,0.03516739,-34.024455)"
       gradientUnits="userSpaceOnUse" />
    <radialGradient
       inkscape:collect="always"
       xlink:href="#linearGradient3308"
       id="radialGradient3320"
       gradientUnits="userSpaceOnUse"
       gradientTransform="matrix(0,-0.997802,3.2285789,0,-34.042973,31.973624)"
       cx="16"
       cy="15.5"
       fx="16"
       fy="15.5"
       r="4.5" />
    <radialGradient
       inkscape:collect="always"
       xlink:href="#linearGradient3308"
       id="radialGradient3330"
       gradientUnits="userSpaceOnUse"
       gradientTransform="matrix(0.997802,0,0,3.2285789,0.03516739,-34.024455)"
       cx="16"
       cy="15.5"
       fx="16"
       fy="15.5"
       r="4.5" />
    <radialGradient
       inkscape:collect="always"
       xlink:href="#linearGradient3308"
       id="radialGradient3339"
       gradientUnits="userSpaceOnUse"
       gradientTransform="matrix(0,-0.997802,3.2285789,0,-34.042973,31.973624)"
       cx="16"
       cy="15.5"
       fx="16"
       fy="15.5"
       r="4.5" />
    <radialGradient
       inkscape:collect="always"
       xlink:href="#linearGradient3308"
       id="radialGradient3350"
       cx="16"
       cy="16"
       fx="16"
       fy="16"
       r="14.5"
       gradientUnits="userSpaceOnUse"
       gradientTransform="translate(20,1)" />
    <radialGradient
       inkscape:collect="always"
       xlink:href="#linearGradient3308"
       id="radialGradient3359"
       gradientUnits="userSpaceOnUse"
       gradientTransform="translate(20,1)"
       cx="16"
       cy="16"
       fx="16"
       fy="16"
       r="14.5" />
    <radialGradient
       inkscape:collect="always"
       xlink:href="#linearGradient3308"
       id="radialGradient3362"
       gradientUnits="userSpaceOnUse"
       cx="16"
       cy="16"
       fx="16"
       fy="16"
       r="14.5" />
    <linearGradient
       inkscape:collect="always"
       xlink:href="#linearGradient20289"
       id="linearGradient20295"
       x1="7.3190637"
       y1="26.113712"
       x2="25.879599"
       y2="7.3846154"
       gradientUnits="userSpaceOnUse" />
    <linearGradient
       inkscape:collect="always"
       xlink:href="#linearGradient20424"
       id="linearGradient20430"
       x1="69.949219"
       y1="-40.317883"
       x2="77.969841"
       y2="-35.373676"
       gradientUnits="userSpaceOnUse" />
    <linearGradient
       inkscape:collect="always"
       xlink:href="#linearGradient20424"
       id="linearGradient20432"
       gradientUnits="userSpaceOnUse"
       x1="69.949219"
       y1="-40.317883"
       x2="77.969841"
       y2="-35.373676" />
    <linearGradient
       inkscape:collect="always"
       xlink:href="#linearGradient20424"
       id="linearGradient20434"
       gradientUnits="userSpaceOnUse"
       x1="69.949219"
       y1="-40.317883"
       x2="77.969841"
       y2="-35.373676" />
    <linearGradient
       inkscape:collect="always"
       xlink:href="#linearGradient20424"
       id="linearGradient20436"
       gradientUnits="userSpaceOnUse"
       x1="69.949219"
       y1="-40.317883"
       x2="77.969841"
       y2="-35.373676" />
    <linearGradient
       inkscape:collect="always"
       xlink:href="#linearGradient20424"
       id="linearGradient20438"
       gradientUnits="userSpaceOnUse"
       x1="69.949219"
       y1="-40.317883"
       x2="77.969841"
       y2="-35.373676" />
    <linearGradient
       inkscape:collect="always"
       xlink:href="#linearGradient20424"
       id="linearGradient20440"
       gradientUnits="userSpaceOnUse"
       x1="69.949219"
       y1="-40.317883"
       x2="77.969841"
       y2="-35.373676" />
    <linearGradient
       inkscape:collect="always"
       xlink:href="#linearGradient20424"
       id="linearGradient20443"
       gradientUnits="userSpaceOnUse"
       x1="69.949219"
       y1="-40.317883"
       x2="77.969841"
       y2="-35.373676" />
    <linearGradient
       inkscape:collect="always"
       xlink:href="#linearGradient20424"
       id="linearGradient20446"
       gradientUnits="userSpaceOnUse"
       x1="69.949219"
       y1="-40.317883"
       x2="77.969841"
       y2="-35.373676" />
    <linearGradient
       inkscape:collect="always"
       xlink:href="#linearGradient20424"
       id="linearGradient20449"
       gradientUnits="userSpaceOnUse"
       x1="69.949219"
       y1="-40.317883"
       x2="77.969841"
       y2="-35.373676" />
    <linearGradient
       inkscape:collect="always"
       xlink:href="#linearGradient20424"
       id="linearGradient20452"
       gradientUnits="userSpaceOnUse"
       x1="69.949219"
       y1="-40.317883"
       x2="77.969841"
       y2="-35.373676" />
    <linearGradient
       inkscape:collect="always"
       xlink:href="#linearGradient20424"
       id="linearGradient20455"
       gradientUnits="userSpaceOnUse"
       x1="69.949219"
       y1="-40.317883"
       x2="77.969841"
       y2="-35.373676"
       gradientTransform="translate(0,54)" />
  </defs>
  <sodipodi:namedview
     id="base"
     pagecolor="#000000"
     bordercolor="#666666"
     borderopacity="1.0"
     gridtolerance="10000"
     guidetolerance="10"
     objecttolerance="10"
     inkscape:pageopacity="0"
     inkscape:pageshadow="2"
     inkscape:zoom="3.640625"
     inkscape:cx="46.315947"
     inkscape:cy="85.828752"
     inkscape:document-units="px"
     inkscape:current-layer="layer1"
     showgrid="true"
     inkscape:window-width="1280"
     inkscape:window-height="1000"
     inkscape:window-x="0"
     inkscape:window-y="24"
     inkscape:window-maximized="1">
    <inkscape:grid
       type="xygrid"
       id="grid2450"
       visible="true"
       enabled="true"
       empspacing="5"
       snapvisiblegridlinesonly="true" />
  </sodipodi:namedview>
  <metadata
     id="metadata7">
    <rdf:RDF>
      <cc:Work
         rdf:about="">
        <dc:format>image/svg+xml</dc:format>
        <dc:type
           rdf:resource="http://purl.org/dc/dcmitype/StillImage" />
        <dc:title></dc:title>
      </cc:Work>
    </rdf:RDF>
  </metadata>
  <g
     inkscape:label="Layer 1"
     inkscape:groupmode="layer"
     id="layer1"
     transform="translate(0,54)">
    <rect
       style="fill:#dbf300;fill-opacity:1;stroke:none"
       id="rect3355"
       width="8.2441225"
       height="0"
       x="89.811325"
       y="-35.827" />
    <path
       sodipodi:type="arc"
       style="fill:url(#linearGradient20295);fill-opacity:1;stroke:none"
       id="path2452"
       sodipodi:cx="16"
       sodipodi:cy="16"
       sodipodi:rx="14"
       sodipodi:ry="14"
       d="M 30,16 C 30,23.731986 23.731986,30 16,30 8.2680135,30 2,23.731986 2,16 2,8.2680135 8.2680135,2 16,2 23.731986,2 30,8.2680135 30,16 z"
       transform="matrix(2.2414302,0,0,2.2414302,7.2317491,-46.963597)" />
    <path
       inkscape:connector-curvature="0"
       style="fill:#388d2f;fill-opacity:1;fill-rule:evenodd;stroke:none"
       d="m 11.233922,-10.345349 c 2.099273,-3.486128 5.271855,-11.194486 7.204978,-9.721085 2.473538,1.510059 3.277803,-0.246949 4.48286,0 1.057488,0.36276 1.930782,4.298448 4.482861,4.48286 3.483944,-0.141169 2.576427,-8.583933 4.48286,-11.207151 1.513869,-2.24143 -1.779674,-4.944614 -2.241428,-6.724291 -1.013833,-1.933594 -1.208134,-4.48286 0,-6.72429 l -9.652418,5.762917 -4.48286,6.79296 -4.68887,11.481829 z"
       id="path3366"
       sodipodi:nodetypes="ccccccccccc" />
    <path
       inkscape:connector-curvature="0"
       style="fill:#388d2f;fill-opacity:1;fill-rule:evenodd;stroke:none"
       d="M 46.788665,19.528958 46.172991,7.5233595 c -0.325065,-3.087756 0.01883,-5.8106562 4.155785,-6.4645553 4.429662,2.5486848 8.813779,5.006286 11.23601,3.5401133 3.747075,-0.2556621 4.591776,-1.9625093 6.002801,-3.3861968 l 6.618472,-10.4664208 -1.231345,8.61940712 -4.3097,7.84981688 -6.310637,6.9263081 -7.849817,3.847948 -7.695895,1.539178 z"
       id="path3368"
       sodipodi:nodetypes="ccccccccccc" />
    <path
       inkscape:connector-curvature="0"
       style="fill:#388d2f;fill-opacity:1;fill-rule:evenodd;stroke:none"
       d="m 43.094632,-17.825005 c 2.497338,6.243348 2.27953,-10.45745 4.48286,-8.96572 2.203331,1.491731 3.351588,4.178003 4.482861,4.48286 1.131272,0.304857 -2.55208,8.78131 0,8.96572 3.483943,-0.141169 5.01414,-6.533396 6.72429,-8.96572 1.710152,-2.432324 -1.503637,-7.109086 -2.241431,-8.965721 -0.737793,-1.856635 -3.449559,-6.72429 -2.241428,-8.96572 l -10.726465,-3.408813 c 0,0 -7.92238,-0.810905 -9.377737,2.035422 -1.455359,2.846327 4.414191,12.580542 4.414191,12.580542 z"
       id="path2402"
       sodipodi:nodetypes="zzzczzcczcz" />
    <path
       inkscape:connector-curvature="0"
       style="fill:#388d2f;fill-opacity:1;fill-rule:evenodd;stroke:none"
       d="m 27.404621,0.1064375 c 1.630881,6.5235197 4.520961,-3.7331602 6.724291,-2.2414313 2.203331,1.49173134 -1.131272,4.1780053 0,4.4828601 1.131273,0.3048572 1.930782,2.0570189 4.482861,2.2414313 3.483943,-0.1411642 2.772709,-2.0505364 4.482859,-4.4828601 1.710151,-2.4323237 2.979226,-2.6262264 2.241429,-4.4828601 -0.737793,-1.8566361 -5.690989,-2.2414312 -4.48286,-4.48286 l -4.48286,-2.2414314 c 0,0 -3.027501,-0.604897 -4.48286,2.2414314 -1.455359,2.8463259 -5.250445,-1.8876674 -6.724291,0 -1.473845,1.8876674 2.241431,8.9657201 2.241431,8.9657201 z"
       id="path2404"
       sodipodi:nodetypes="czzczzcczzz" />
    <path
       style="font-size:medium;font-style:normal;font-variant:normal;font-weight:normal;font-stretch:normal;text-indent:0;text-align:start;text-decoration:none;line-height:normal;letter-spacing:normal;word-spacing:normal;text-transform:none;direction:ltr;block-progression:tb;writing-mode:lr-tb;text-anchor:start;baseline-shift:baseline;color:#000000;fill:#a0a0a0;fill-opacity:1;stroke:none;stroke-width:3;marker:none;visibility:visible;display:inline;overflow:visible;enable-background:accumulate;font-family:Sans;-inkscape-font-specification:Sans"
       d="M 43,0 C 19.524459,0 0.5,19.430708 0.5,42.90625 0.5,66.381789 19.618209,85.5 43.09375,85.5 66.56929,85.5 86,66.475539 86,43 86,31.26223 86,8 86,0 75,0 54.737773,0 43,0 z m -0.1875,11.8125 c 17.002053,0 30.8125,13.779197 30.8125,30.78125 0,17.002053 -13.810447,30.78125 -30.8125,30.78125 -17.002053,0 -30.78125,-13.779197 -30.78125,-30.78125 0,-17.002053 13.779197,-30.78125 30.78125,-30.78125 z"
       id="path20303"
       transform="translate(0,-54)"
       inkscape:connector-curvature="0"
       sodipodi:nodetypes="sssscssssss" />
    <path
       style="font-size:medium;font-style:normal;font-variant:normal;font-weight:normal;font-stretch:normal;text-indent:0;text-align:start;text-decoration:none;line-height:normal;letter-spacing:normal;word-spacing:normal;text-transform:none;direction:ltr;block-progression:tb;writing-mode:lr-tb;text-anchor:start;baseline-shift:baseline;color:#000000;fill:#3e3e3e;fill-opacity:1;stroke:none;stroke-width:1.5999999;marker:none;visibility:visible;display:inline;overflow:visible;enable-background:accumulate;font-family:Sans;-inkscape-font-specification:Sans"
       d="M 64.8125,2.21875 C 63.906551,2.2051397 62.986125,2.5488466 62.28125,3.25 L 62.1875,3.34375 C 60.77775,4.7460569 60.758009,7.0559773 62.125,8.5 l 3.96875,4.1875 c 0.160236,0.169265 0.318628,0.307035 0.5,0.4375 l -1.375,1.34375 c -1.434653,1.377699 -1.502699,3.659097 -0.125,5.09375 L 66.875,21.375 c 1.377699,1.434653 3.627847,1.502699 5.0625,0.125 l 1.59375,-1.53125 c 0.104545,0.150895 0.213961,0.300397 0.34375,0.4375 l 3.96875,4.21875 c 1.366991,1.444023 3.59025,1.464807 5,0.0625 l 0.09375,-0.09375 c 1.40975,-1.402307 1.429491,-3.680977 0.0625,-5.125 l -3.96875,-4.1875 c -0.103465,-0.109295 -0.19982,-0.219376 -0.3125,-0.3125 l 0.5,-0.46875 C 80.391579,13.373731 81,12 79.9375,10.28125 78,8 78,8 76.78125,7 75.42823,6.1991909 73.660737,6.3553328 72.46875,7.5 L 71.75,8.1875 C 71.614962,7.961418 71.437961,7.7298031 71.25,7.53125 L 67.28125,3.34375 C 66.597754,2.6217387 65.718449,2.2323603 64.8125,2.21875 z m -3.09375,19 c -0.472717,-0.01659 -0.941621,0.0474 -1.375,0.09375 -0.866759,0.0927 -1.5625,0.25 -1.5625,0.25 -0.415802,0.08315 -0.71561,0.542321 -0.624501,0.956453 0.09111,0.414131 0.555943,0.70508 0.968251,0.606047 0,0 0.64489,-0.137322 1.40625,-0.21875 0.76136,-0.08143 1.668165,-0.05963 1.9375,0.0625 0.377994,0.171402 0.778609,0.70358 0.9375,1.1875 0.101712,0.309779 0.102548,1.196118 0,1.9375 -0.102548,0.741382 -0.25,1.34375 -0.25,1.34375 -0.09821,0.409072 0.184659,0.870622 0.593738,0.968801 0.409078,0.09818 0.87061,-0.184716 0.968762,-0.593801 0,0 0.166094,-0.66747 0.28125,-1.5 0.115156,-0.83253 0.225218,-1.779965 -0.0625,-2.65625 -0.287629,-0.876006 -0.896386,-1.709586 -1.8125,-2.125 -0.449368,-0.203762 -0.933533,-0.29591 -1.40625,-0.3125 z"
       transform="translate(0,-54)"
       id="path20391"
       inkscape:connector-curvature="0"
       sodipodi:nodetypes="sccccccccccccccccccccccccssscscsssscscssss" />
  </g>
</svg>
