<?xml version="1.0" encoding="UTF-8" standalone="no"?>
<!-- Created with Inkscape (http://www.inkscape.org/) -->
<svg
   xmlns:dc="http://purl.org/dc/elements/1.1/"
   xmlns:cc="http://creativecommons.org/ns#"
   xmlns:rdf="http://www.w3.org/1999/02/22-rdf-syntax-ns#"
   xmlns:svg="http://www.w3.org/2000/svg"
   xmlns="http://www.w3.org/2000/svg"
   xmlns:xlink="http://www.w3.org/1999/xlink"
   xmlns:sodipodi="http://sodipodi.sourceforge.net/DTD/sodipodi-0.dtd"
   xmlns:inkscape="http://www.inkscape.org/namespaces/inkscape"
   width="32"
   height="32"
   id="svg2"
   sodipodi:version="0.32"
   inkscape:version="0.46"
   version="1.0"
   sodipodi:docname="maep.svg"
   inkscape:output_extension="org.inkscape.output.svg.inkscape"
   inkscape:export-filename="/home/harbaum/scratchbox/navi/maep/trunk/data/maep.32.png"
   inkscape:export-xdpi="90"
   inkscape:export-ydpi="90">
  <defs
     id="defs4">
    <linearGradient
       id="linearGradient3171">
      <stop
         style="stop-color:#bbbcfd;stop-opacity:1;"
         offset="0"
         id="stop3173" />
      <stop
         style="stop-color:#5357f8;stop-opacity:1;"
         offset="1"
         id="stop3175" />
    </linearGradient>
    <linearGradient
       id="linearGradient3308">
      <stop
         style="stop-color:#ffffff;stop-opacity:1;"
         offset="0"
         id="stop3310" />
      <stop
         id="stop3316"
         offset="0.43339428"
         style="stop-color:#fffdf7;stop-opacity:1;" />
      <stop
         style="stop-color:#e0b304;stop-opacity:1;"
         offset="0.74691355"
         id="stop3364" />
      <stop
         style="stop-color:#ffeb3a;stop-opacity:1;"
         offset="1"
         id="stop3312" />
    </linearGradient>
    <inkscape:perspective
       sodipodi:type="inkscape:persp3d"
       inkscape:vp_x="0 : 526.18109 : 1"
       inkscape:vp_y="0 : 1000 : 0"
       inkscape:vp_z="744.09448 : 526.18109 : 1"
       inkscape:persp3d-origin="372.04724 : 350.78739 : 1"
       id="perspective10" />
    <inkscape:perspective
       id="perspective2444"
       inkscape:persp3d-origin="372.04724 : 350.78739 : 1"
       inkscape:vp_z="744.09448 : 526.18109 : 1"
       inkscape:vp_y="0 : 1000 : 0"
       inkscape:vp_x="0 : 526.18109 : 1"
       sodipodi:type="inkscape:persp3d" />
    <radialGradient
       inkscape:collect="always"
       xlink:href="#linearGradient3308"
       id="radialGradient3314"
       cx="16"
       cy="15.5"
       fx="16"
       fy="15.5"
       r="4.5"
       gradientTransform="matrix(0.997802,0,0,3.2285789,3.5167393e-2,-34.024455)"
       gradientUnits="userSpaceOnUse" />
    <radialGradient
       inkscape:collect="always"
       xlink:href="#linearGradient3308"
       id="radialGradient3320"
       gradientUnits="userSpaceOnUse"
       gradientTransform="matrix(0,-0.997802,3.2285789,0,-34.042973,31.973624)"
       cx="16"
       cy="15.5"
       fx="16"
       fy="15.5"
       r="4.5" />
    <radialGradient
       inkscape:collect="always"
       xlink:href="#linearGradient3308"
       id="radialGradient3330"
       gradientUnits="userSpaceOnUse"
       gradientTransform="matrix(0.997802,0,0,3.2285789,3.5167393e-2,-34.024455)"
       cx="16"
       cy="15.5"
       fx="16"
       fy="15.5"
       r="4.5" />
    <radialGradient
       inkscape:collect="always"
       xlink:href="#linearGradient3308"
       id="radialGradient3339"
       gradientUnits="userSpaceOnUse"
       gradientTransform="matrix(0,-0.997802,3.2285789,0,-34.042973,31.973624)"
       cx="16"
       cy="15.5"
       fx="16"
       fy="15.5"
       r="4.5" />
    <radialGradient
       inkscape:collect="always"
       xlink:href="#linearGradient3308"
       id="radialGradient3350"
       cx="16"
       cy="16"
       fx="16"
       fy="16"
       r="14.5"
       gradientUnits="userSpaceOnUse"
       gradientTransform="translate(20,1)" />
    <radialGradient
       inkscape:collect="always"
       xlink:href="#linearGradient3308"
       id="radialGradient3359"
       gradientUnits="userSpaceOnUse"
       gradientTransform="translate(20,1)"
       cx="16"
       cy="16"
       fx="16"
       fy="16"
       r="14.5" />
    <radialGradient
       inkscape:collect="always"
       xlink:href="#linearGradient3308"
       id="radialGradient3362"
       gradientUnits="userSpaceOnUse"
       cx="16"
       cy="16"
       fx="16"
       fy="16"
       r="14.5" />
    <linearGradient
       inkscape:collect="always"
       xlink:href="#linearGradient3171"
       id="linearGradient3177"
       x1="2"
       y1="4"
       x2="30"
       y2="27"
       gradientUnits="userSpaceOnUse" />
  </defs>
  <sodipodi:namedview
     id="base"
     pagecolor="#000000"
     bordercolor="#666666"
     borderopacity="1.0"
     gridtolerance="10000"
     guidetolerance="10"
     objecttolerance="10"
     inkscape:pageopacity="0"
     inkscape:pageshadow="2"
     inkscape:zoom="14.5625"
     inkscape:cx="16.988034"
     inkscape:cy="16.98423"
     inkscape:document-units="px"
     inkscape:current-layer="layer1"
     showgrid="true"
     inkscape:window-width="694"
     inkscape:window-height="730"
     inkscape:window-x="795"
     inkscape:window-y="420">
    <inkscape:grid
       type="xygrid"
       id="grid2450"
       visible="true"
       enabled="true" />
  </sodipodi:namedview>
  <metadata
     id="metadata7">
    <rdf:RDF>
      <cc:Work
         rdf:about="">
        <dc:format>image/svg+xml</dc:format>
        <dc:type
           rdf:resource="http://purl.org/dc/dcmitype/StillImage" />
      </cc:Work>
    </rdf:RDF>
  </metadata>
  <g
     inkscape:label="Layer 1"
     inkscape:groupmode="layer"
     id="layer1">
    <path
       sodipodi:type="arc"
       style="fill:#abe0ff;fill-opacity:1;stroke:#000000;stroke-width:1;stroke-linecap:round;stroke-linejoin:round;stroke-miterlimit:4;stroke-dasharray:none;stroke-opacity:1"
       id="path2452"
       sodipodi:cx="16"
       sodipodi:cy="16"
       sodipodi:rx="14"
       sodipodi:ry="14"
       d="M 30,16 A 14,14 0 1 1 2,16 A 14,14 0 1 1 30,16 z" />
    <rect
       style="fill:#dbf300;fill-opacity:1;stroke:none;stroke-width:1;stroke-linecap:round;stroke-linejoin:round;stroke-miterlimit:4;stroke-dasharray:none;stroke-opacity:1"
       id="rect3355"
       width="3"
       height="0"
       x="33"
       y="7" />
    <path
       style="fill:#388d2f;fill-rule:evenodd;stroke:none;stroke-width:1px;stroke-linecap:butt;stroke-linejoin:miter;stroke-opacity:1;fill-opacity:1"
       d="M 2,16 C 2.9365771,14.444686 4.1375492,11.342652 5,12 C 6.1035534,12.673704 6.4623714,11.889825 7,12 C 7.4717915,12.161844 7.8614058,13.917726 9,14 C 10.55434,13.937024 10.149457,10.170333 11,9 C 11.675403,8 10.206009,6.7939914 10,6 C 9.5476852,5.1373391 9.4609997,4 10,3 L 6,6 L 4,9 L 2,14 L 2,16 z"
       id="path3366"
       sodipodi:nodetypes="ccccccccccc" />
    <path
       style="fill:#388d2f;fill-rule:evenodd;stroke:none;stroke-width:1px;stroke-linecap:butt;stroke-linejoin:miter;stroke-opacity:1;fill-opacity:1"
       d="M 17.648069,29.665236 L 17.373391,24.309013 C 17.228365,22.93143 17.381768,21.716626 19.227468,21.424893 C 21.203733,22.561972 23.15968,23.658416 24.240343,23.004292 C 25.912077,22.89023 26.288935,22.128731 26.918455,21.493562 L 29.871245,16.824034 L 29.321888,20.669528 L 27.399142,24.171674 L 24.583691,27.261803 L 21.081545,28.978541 L 17.648069,29.665236 z"
       id="path3368"
       sodipodi:nodetypes="ccccccccccc" />
    <path
       style="fill:#388d2f;fill-opacity:1;fill-rule:evenodd;stroke:none;stroke-width:1px;stroke-linecap:butt;stroke-linejoin:miter;stroke-opacity:1"
       d="M 16,13 C 17.114172,15.78543 17.016998,8.334474 18,9 C 18.983002,9.665526 19.49529,10.86399 20,11 C 20.50471,11.13601 18.861406,14.917726 20,15 C 21.55434,14.937024 22.237027,12.085166 23,11 C 23.762973,9.9148335 22.329162,7.8283262 22,7 C 21.670838,6.1716738 20.461,4 21,3 L 16,2 C 16,2 12.649299,1.730129 12,3 C 11.350701,4.269871 14,8 14,8 L 16,13 z"
       id="path2402"
       sodipodi:nodetypes="czzczzcczcz" />
    <path
       sodipodi:type="arc"
       style="fill:none;fill-opacity:1;stroke:url(#linearGradient3177);stroke-width:1;stroke-linecap:round;stroke-linejoin:round;stroke-miterlimit:4;stroke-dasharray:none;stroke-opacity:1"
       id="path3370"
       sodipodi:cx="16"
       sodipodi:cy="16"
       sodipodi:rx="14"
       sodipodi:ry="14"
       d="M 30,16 A 14,14 0 1 1 2,16 A 14,14 0 1 1 30,16 z" />
    <path
       style="fill:#388d2f;fill-opacity:1;fill-rule:evenodd;stroke:none;stroke-width:1px;stroke-linecap:butt;stroke-linejoin:miter;stroke-opacity:1"
       d="M 9,21 C 9.7276067,23.910427 11.016998,19.334474 12,20 C 12.983002,20.665526 11.49529,21.86399 12,22 C 12.50471,22.13601 12.861406,22.917726 14,23 C 15.55434,22.937024 15.237027,22.085166 16,21 C 16.762973,19.914834 17.329162,19.828326 17,19 C 16.670838,18.171674 14.461,18 15,17 L 13,16 C 13,16 11.649299,15.730129 11,17 C 10.350701,18.269871 8.6575469,16.157829 8,17 C 7.3424531,17.842171 9,21 9,21 z"
       id="path2404"
       sodipodi:nodetypes="czzczzcczzz" />
  </g>
</svg>
