<?xml version="1.0" encoding="UTF-8" standalone="no"?>
<!-- Created with Inkscape (http://www.inkscape.org/) -->
<svg
   xmlns:dc="http://purl.org/dc/elements/1.1/"
   xmlns:cc="http://creativecommons.org/ns#"
   xmlns:rdf="http://www.w3.org/1999/02/22-rdf-syntax-ns#"
   xmlns:svg="http://www.w3.org/2000/svg"
   xmlns="http://www.w3.org/2000/svg"
   xmlns:sodipodi="http://sodipodi.sourceforge.net/DTD/sodipodi-0.dtd"
   xmlns:inkscape="http://www.inkscape.org/namespaces/inkscape"
   id="svg2"
   sodipodi:version="0.32"
   inkscape:version="0.46"
   width="32"
   height="32"
   version="1.0"
   sodipodi:docbase="/home/neil/wikilogo"
   sodipodi:docname="wikipedia_w.svg"
   inkscape:output_extension="org.inkscape.output.svg.inkscape"
   inkscape:export-filename="/scratchbox/users/harbaum/home/harbaum/navi/maep/trunk/data/wikipedia_w.32.png"
   inkscape:export-xdpi="90"
   inkscape:export-ydpi="90">
  <metadata
     id="metadata7">
    <rdf:RDF>
      <cc:Work
         rdf:about="">
        <dc:format>image/svg+xml</dc:format>
        <dc:type
           rdf:resource="http://purl.org/dc/dcmitype/StillImage" />
      </cc:Work>
    </rdf:RDF>
  </metadata>
  <defs
     id="defs5">
    <inkscape:perspective
       sodipodi:type="inkscape:persp3d"
       inkscape:vp_x="0 : 850 : 1"
       inkscape:vp_y="0 : 1000 : 0"
       inkscape:vp_z="1700 : 850 : 1"
       inkscape:persp3d-origin="850 : 566.66667 : 1"
       id="perspective7" />
  </defs>
  <sodipodi:namedview
     inkscape:window-height="755"
     inkscape:window-width="953"
     inkscape:pageshadow="2"
     inkscape:pageopacity="0.0"
     guidetolerance="10.0"
     gridtolerance="10.0"
     objecttolerance="10.0"
     borderopacity="1.0"
     bordercolor="#666666"
     pagecolor="#ffffff"
     id="base"
     showguides="true"
     inkscape:guide-bbox="true"
     inkscape:zoom="17.90625"
     inkscape:cx="16"
     inkscape:cy="-21.808028"
     inkscape:window-x="577"
     inkscape:window-y="367"
     inkscape:current-layer="svg2"
     showgrid="true">
    <inkscape:grid
       type="xygrid"
       id="grid2382"
       visible="true"
       enabled="true" />
  </sodipodi:namedview>
  <path
     style="fill:#ffffff;fill-opacity:1;stroke:#000000;stroke-width:1;stroke-linecap:round;stroke-linejoin:miter;stroke-miterlimit:4;stroke-dasharray:none;stroke-opacity:1"
     d="M 3.46875,1.8125 C 2.5129545,1.8125 1.75,2.5716608 1.75,3.53125 L 1.75,21.03125 C 1.75,21.990839 2.5129545,22.75 3.46875,22.75 L 12.3125,22.75 C 12.935726,24.137747 16,30 16,30 L 19.5625,22.75 L 28.5625,22.75 C 29.518296,22.75 30.281249,21.99084 30.28125,21.03125 L 30.28125,3.53125 C 30.28125,2.5716607 29.518296,1.8125 28.5625,1.8125 L 3.46875,1.8125 z"
     id="rect2380"
     sodipodi:nodetypes="cccccccccccc" />
  <path
     style="fill:#000000;fill-opacity:1;stroke:none;stroke-opacity:1"
     d="M 5.765909,7.1961062 C 5.2073049,6.2566353 4.2413364,5.3279362 3.5441496,5.0600667 L 3.431751,5.0168817 L 3.431751,4.5645353 L 3.431751,4.1121893 L 3.5036794,4.1023302 L 9.8345959,4.0924715 C 9.8383323,4.2647522 9.8419582,4.6237685 9.8369627,4.9606539 C 8.9997254,5.0647212 7.9905151,5.473926 8.2701757,6.4124478 C 9.8663246,9.9390228 11.31872,13.529005 12.894538,17.064482 L 15.59927,12.006884 C 14.552659,9.8630735 13.790194,7.6943731 12.644487,5.5911542 C 12.270941,4.9855136 11.260773,4.9686154 10.545329,4.9452055 L 10.547746,4.1079748 L 16.532003,4.1285901 L 16.549193,4.937062 C 16.009726,5.0116253 15.373808,5.139817 15.445921,5.7936134 L 17.144381,9.550006 C 17.703342,8.3575992 18.324604,7.1904867 18.817562,5.9683656 C 19.041342,5.0007362 17.952736,4.9526126 17.258469,4.9256686 L 17.246276,4.1285719 L 22.593775,4.1079748 L 22.593775,4.9234316 C 21.812097,4.9786832 21.072654,5.2041333 20.64155,5.7820371 C 19.59359,7.4020836 18.816238,9.2403656 18,11 C 18.806482,12.90712 19.647028,14.811614 20.471334,16.560272 L 25.028989,6.0474946 C 24.721529,5.3545282 24.025254,5.1097543 23.341808,4.9512071 L 23.306927,4.1031035 L 28.360988,4.1438126 L 28.360883,4.9684055 C 28.135687,5.0034323 27.920088,5.0728737 27.711573,5.1638551 C 27.316389,5.3472679 26.943089,5.7112952 26.692699,6.1574158 L 20.410561,20.61119 L 19.357804,20.619344 L 16.369219,13.580608 L 12.741457,20.618812 L 11.652292,20.618943 C 9.5327632,16.203957 7.9993144,11.55795 5.765909,7.1961062 z"
     id="path1873"
     sodipodi:nodetypes="ccccccccccccccccccccccccccccccccccccccc" />
</svg>
