<?xml version="1.0" encoding="UTF-8" standalone="no"?>
<!-- Created with Inkscape (http://www.inkscape.org/) -->
<svg
   xmlns:dc="http://purl.org/dc/elements/1.1/"
   xmlns:cc="http://creativecommons.org/ns#"
   xmlns:rdf="http://www.w3.org/1999/02/22-rdf-syntax-ns#"
   xmlns:svg="http://www.w3.org/2000/svg"
   xmlns="http://www.w3.org/2000/svg"
   xmlns:sodipodi="http://sodipodi.sourceforge.net/DTD/sodipodi-0.dtd"
   xmlns:inkscape="http://www.inkscape.org/namespaces/inkscape"
   id="svg2"
   sodipodi:version="0.32"
   inkscape:version="0.46"
   width="32"
   height="32"
   version="1.0"
   sodipodi:docbase="/home/neil/wikilogo"
   sodipodi:docname="wikipedia_w.svg"
   inkscape:output_extension="org.inkscape.output.svg.inkscape"
   inkscape:export-filename="/scratchbox/users/harbaum/home/harbaum/navi/maep/trunk/data/wikipedia_w.16.png"
   inkscape:export-xdpi="45"
   inkscape:export-ydpi="45">
  <metadata
     id="metadata7">
    <rdf:RDF>
      <cc:Work
         rdf:about="">
        <dc:format>image/svg+xml</dc:format>
        <dc:type
           rdf:resource="http://purl.org/dc/dcmitype/StillImage" />
      </cc:Work>
    </rdf:RDF>
  </metadata>
  <defs
     id="defs5">
    <inkscape:perspective
       sodipodi:type="inkscape:persp3d"
       inkscape:vp_x="0 : 850 : 1"
       inkscape:vp_y="0 : 1000 : 0"
       inkscape:vp_z="1700 : 850 : 1"
       inkscape:persp3d-origin="850 : 566.66667 : 1"
       id="perspective7" />
  </defs>
  <sodipodi:namedview
     inkscape:window-height="740"
     inkscape:window-width="939"
     inkscape:pageshadow="2"
     inkscape:pageopacity="0.0"
     guidetolerance="10.0"
     gridtolerance="10.0"
     objecttolerance="10.0"
     borderopacity="1.0"
     bordercolor="#666666"
     pagecolor="#ffffff"
     id="base"
     showguides="true"
     inkscape:guide-bbox="true"
     inkscape:zoom="17.6875"
     inkscape:cx="16"
     inkscape:cy="16"
     inkscape:window-x="23"
     inkscape:window-y="0"
     inkscape:current-layer="svg2"
     showgrid="true">
    <inkscape:grid
       type="xygrid"
       id="grid2382"
       visible="true"
       enabled="true" />
  </sodipodi:namedview>
  <path
     style="fill:none;fill-opacity:1;stroke:#ffffff;stroke-width:2;stroke-linecap:round;stroke-linejoin:round;stroke-miterlimit:4;stroke-dasharray:none;stroke-opacity:1"
     d="M 3.0000002,1 C 2.0442042,1 1.0000002,2.04041 1.0000002,3 L 1.0000002,26 C 1.0000002,26.959589 2.0442042,28 3.0000002,28 L 14,28 C 14,28 16,31 16,31 L 18,28 L 29,28 C 29.955796,28 30.999999,26.95959 31,26 L 31,3 C 31,2.04041 29.955796,1 29,1 L 3.0000002,1 z"
     id="path2381"
     sodipodi:nodetypes="cccccccccccc" />
  <path
     style="fill:#ffffff;fill-opacity:1;stroke:#000000;stroke-width:1;stroke-linecap:round;stroke-linejoin:round;stroke-miterlimit:4;stroke-dasharray:none;stroke-opacity:1"
     d="M 3,1 C 2.0442045,1 1,2.0404108 1,3 L 1,26 C 1,26.959589 2.0442045,28 3,28 L 14,28 C 14,28 16,31 16,31 L 18,28 L 29,28 C 29.955796,28 30.999999,26.95959 31,26 L 31,3 C 31,2.0404107 29.955796,1 29,1 L 3,1 z"
     id="rect2380"
     sodipodi:nodetypes="cccccccccccc" />
  <path
     style="fill:#000000;fill-opacity:1;stroke:none;stroke-opacity:1"
     d="M 5.765909,10.196106 C 5.2073049,9.256635 4.2413364,8.3279362 3.5441496,8.0600667 L 3.431751,8.0168817 L 3.431751,7.5645353 L 3.431751,7.1121893 L 3.5036794,7.1023302 L 9.8345959,7.0924715 C 9.8383323,7.2647522 9.8419582,7.6237685 9.8369627,7.9606539 C 8.9997254,8.0647212 7.9905151,8.473926 8.2701757,9.412448 C 9.8663246,12.939023 11.31872,16.529005 12.894538,20.064482 L 15.59927,15.006884 C 14.552659,12.863074 13.790194,10.694373 12.644487,8.5911542 C 12.270941,7.9855136 11.260773,7.9686154 10.545329,7.9452055 L 10.547746,7.1079748 L 16.532003,7.1285901 L 16.549193,7.937062 C 16.009726,8.0116253 15.373808,8.139817 15.445921,8.7936134 L 17.144381,12.550006 C 17.703342,11.357599 18.324604,10.190487 18.817562,8.9683656 C 19.041342,8.0007362 17.952736,7.9526126 17.258469,7.9256686 L 17.246276,7.1285719 L 22.593775,7.1079748 L 22.593775,7.9234316 C 21.812097,7.9786832 21.072654,8.2041333 20.64155,8.7820371 C 19.59359,10.402084 18.816238,12.240366 18,14 C 18.806482,15.90712 19.647028,17.811614 20.471334,19.560272 L 25.028989,9.047495 C 24.721529,8.3545282 24.025254,8.1097543 23.341808,7.9512071 L 23.306927,7.1031035 L 28.360988,7.1438126 L 28.360883,7.9684055 C 28.135687,8.0034323 27.920088,8.0728737 27.711573,8.1638551 C 27.316389,8.3472679 26.943089,8.7112952 26.692699,9.157416 L 20.410561,23.61119 L 19.357804,23.619344 L 16.369219,16.580608 L 12.741457,23.618812 L 11.652292,23.618943 C 9.5327632,19.203957 7.9993144,14.55795 5.765909,10.196106 z"
     id="path1873"
     sodipodi:nodetypes="ccccccccccccccccccccccccccccccccccccccc" />
</svg>
